HIERARCHY
ROOT Hips
{
	OFFSET 0.00000 0.00000 0.00000
	CHANNELS 6 Xposition Yposition Zposition Yrotation Zrotation Xrotation 
	JOINT Lumbar
	{
		OFFSET 0 0 0
		CHANNELS 3 Zrotation Xrotation Yrotation
		JOINT Neck
		{
			OFFSET 0.00 0.2701 0.00
			CHANNELS 3 Zrotation Xrotation Yrotation
			End Site
			{
				OFFSET 0.00 0.1379 0.00
			}
		}
		JOINT RightShoulder
		{
			OFFSET 0.0119 0.2289 0.1181
			CHANNELS 3 Zrotation Xrotation Yrotation
			JOINT RightElbow
			{
				OFFSET 0.00 -0.1475 0.00
				CHANNELS 2 Zrotation Yrotation
				JOINT RightWrist
				{
					OFFSET 0.00 -0.1605 0.00
					CHANNELS 2 Zrotation Xrotation
					End Site
					{
						OFFSET 0.0040 -0.1068 0.0006
					}
				}
			}
		}
		JOINT LeftShoulder
		{
			OFFSET 0.0119 0.2289 -0.1181
			CHANNELS 3 Zrotation Xrotation Yrotation
			JOINT LeftElbow
			{
				OFFSET 0.00 -0.1475 0.00
				CHANNELS 2 Zrotation Yrotation
				JOINT LeftWrist
				{
					OFFSET 0.00 -0.1605 0.00
					CHANNELS 2 Zrotation Xrotation
					End Site
					{
						OFFSET 0.0040 -0.1068 -0.0006
					}
				}
			}
		}
	}
	JOINT RightHip
	{
		OFFSET 0.0316 -0.0424 0.0458
		CHANNELS 3 Zrotation Xrotation Yrotation
		JOINT RightKnee
		{
			OFFSET 0.00 -0.2438 0.00
			CHANNELS 1 Zrotation
			JOINT RightAnkle
			{
				OFFSET 0.00 -0.2449 0.00
				CHANNELS 3 Zrotation Xrotation Yrotation
				End Site
				{
					OFFSET 0.1237 -0.0542 0.0051
				}
			}
		}
	}
	JOINT LeftHip
	{
		OFFSET 0.0316 -0.0424 -0.0458
		CHANNELS 3 Zrotation Xrotation Yrotation
		JOINT LeftKnee
		{
			OFFSET 0.00 -0.2438 0.00
			CHANNELS 1 Zrotation
			JOINT LeftAnkle
			{
				OFFSET 0.00 -0.2449 0.00
				CHANNELS 3 Zrotation Xrotation Yrotation
				End Site
				{
					OFFSET 0.1237 -0.0542 -0.0051
				}
			}
		}
	}
}
MOTION
Frames: 32
Frame Time: 0.02
-1.85498 0.59631 0.61835 518.05428 0 -5.38941 3.76385 2.18198 -4.43219 -31.83868 3.32614 3.73274 38.30449 -39.31826 -4.81518 21.9274 106.94124 -19.34295 -8.08641 23.77943 10.91133 -11.87428 7.71648 -82.62643 0.55086 0.85995 4.38639 -0.06068 0.76196 -17.72606 -15.52312 -0.8149 -13.31989 -5.37776 2.87187 13.59579 -2.41399 -5.31327 2.30907 5.99515
-1.8525 0.5964 0.62018 517.44233 0 -5.47368 3.11618 2.33037 -4.35706 -31.42114 3.31497 3.78034 36.07875 -36.58576 -1.60056 20.36679 104.1609 -16.88548 -7.82574 23.35136 10.95772 -12.08859 7.74939 -82.63586 0.49377 0.85097 5.3691 0.1309 1.71297 -18.72758 -15.85821 -0.74743 -13.50346 -5.3062 2.81735 13.86835 -2.14135 -5.49398 2.30937 6.24074
-1.84975 0.59654 0.62206 516.7815 0 -5.59304 2.39003 2.49141 -4.28931 -30.84265 3.32605 3.84606 33.73502 -33.86286 2.09388 18.65926 100.27343 -14.2378 -7.34599 22.87296 11.02242 -12.20374 7.8244 -82.63188 0.4023 0.8631 6.42369 0.39112 2.75613 -19.78142 -16.26928 -0.67422 -13.65489 -5.26447 2.7923 14.16126 -1.76544 -5.7214 2.31003 6.50806
-1.84712 0.59666 0.62392 516.14755 0 -5.70177 1.69117 2.64991 -4.2342 -30.32348 3.34206 3.90357 31.42791 -31.16466 5.5532 17.04601 96.99511 -11.70573 -6.95499 22.40532 11.06622 -12.35725 7.88421 -82.63394 0.32837 0.86984 7.41435 0.61799 3.75307 -20.75352 -16.65368 -0.60301 -13.80849 -5.20026 2.76151 14.45661 -1.45184 -5.91668 2.30989 6.75171
-1.84451 0.59675 0.62576 515.49276 0 -5.7887 1.02428 2.79654 -4.10988 -29.8543 3.29636 3.96486 29.19145 -28.33621 9.11233 15.30319 93.24677 -9.01628 -6.60548 21.98429 11.15992 -12.54232 7.92962 -82.63638 0.24652 0.86013 8.54401 0.85477 4.77884 -21.97994 -17.00781 -0.53312 -14.01973 -5.17107 2.69797 14.70309 -1.07672 -6.15837 2.31211 7.05486
-1.8418 0.59692 0.62767 514.86732 0 -5.92858 0.27386 2.96892 -4.13214 -29.24952 3.38532 4.02121 26.78543 -25.79055 12.55781 13.80137 90.21941 -6.62532 -6.1218 21.45896 11.15392 -12.63519 8.01371 -82.63449 0.17285 0.88904 9.39708 1.08603 5.75859 -22.68178 -17.44103 -0.46019 -14.09867 -5.07731 2.70923 15.0571 -0.8038 -6.31364 2.31 7.24051
-1.83889 0.59732 0.62973 514.36932 0 -6.21271 -0.69183 3.22524 -4.55809 -28.26719 3.82117 4.05988 23.87793 -23.94757 15.68252 12.99114 89.50087 -5.07162 -5.28756 20.62185 10.88481 -12.51701 8.19938 -82.62746 0.13156 1.02095 9.48737 1.29656 6.63634 -21.97032 -18.08266 -0.37309 -13.85434 -4.79479 2.92729 15.69018 -0.8397 -6.22798 2.29121 7.07485
-1.8359 0.59779 0.63186 513.89603 0 -6.5476 -1.73698 3.50377 -5.13198 -27.16339 4.39437 4.09356 20.81619 -22.40423 18.65245 12.4324 89.54165 -3.83521 -4.33204 19.6892 10.5124 -12.30489 8.42086 -82.61576 0.09951 1.19031 9.2932 1.49743 7.45512 -20.7224 -18.79763 -0.2846 -13.4726 -4.44736 3.2184 16.43319 -0.98134 -6.05236 2.26888 6.79387
-1.83295 0.59822 0.63396 513.39036 0 -6.85504 -2.74382 3.76199 -5.63717 -26.14253 4.9177 4.1271 17.86329 -20.77195 21.61925 11.7664 89.20709 -2.48044 -3.45461 18.82309 10.17694 -12.12392 8.62298 -82.60411 0.06224 1.34169 9.21553 1.69491 8.26841 -19.68395 -19.47538 -0.20149 -13.12933 -4.13184 3.47134 17.13376 -1.07319 -5.91163 2.25126 6.57918
-1.82999 0.59868 0.63607 512.97507 0 -7.18257 -3.76593 4.06483 -6.14644 -24.99521 5.39118 4.16635 14.73691 -18.93569 24.91629 11.06421 88.95907 -1.01092 -2.47357 17.85427 9.88388 -11.99143 8.84157 -82.60135 0.02778 1.4989 9.19187 1.92623 9.22015 -18.77993 -20.17949 -0.09797 -12.88077 -3.8064 3.74621 17.80233 -1.16868 -5.7967 2.22067 6.30619
-1.82703 0.59909 0.63817 512.37445 0 -7.4794 -4.77008 4.27852 -6.6852 -24.08916 5.99791 4.19876 11.94412 -17.60148 27.47865 10.5005 88.7283 0.14355 -1.68109 17.08152 9.47818 -11.73294 9.03137 -82.57838 -0.00953 1.65128 8.99038 2.08561 9.86979 -17.4834 -20.83602 -0.03691 -12.40954 -3.48677 3.99245 18.56465 -1.28322 -5.60746 2.2161 6.12761
-1.82406 0.59932 0.64028 511.28736 0 -7.68253 -5.73783 4.25216 -7.24241 -23.83969 6.9633 4.15541 10.04939 -17.52742 28.07686 10.24715 88.34303 0.48506 -1.45195 16.83825 8.78403 -11.18065 9.15379 -82.5073 -0.06011 1.79244 8.33873 2.03293 9.68286 -15.10038 -21.42144 -0.09179 -11.29963 -3.19113 4.14084 19.54775 -1.42295 -5.22375 2.28554 6.23213
-1.82111 0.59949 0.64238 510.00761 0 -7.85207 -6.67763 4.1334 -7.82796 -23.84473 8.05313 4.11457 8.50862 -17.95742 27.93235 10.12719 87.95742 0.52204 -1.41578 16.80238 7.98127 -10.49722 9.24209 -82.41498 -0.11331 1.92535 7.52252 1.91032 9.19445 -12.36607 -21.94211 -0.18975 -9.982 -2.9051 4.25776 20.62308 -1.57877 -4.77087 2.38093 6.43668
-1.81818 0.59969 0.64445 508.79534 0 -8.03469 -7.60922 4.04889 -8.41961 -23.76074 9.07027 4.11252 6.84506 -18.19214 28.10945 9.95387 87.58862 0.7125 -1.28346 16.69506 7.22893 -9.85675 9.33182 -82.32801 -0.1628 2.05436 6.80062 1.83032 8.85729 -9.87949 -22.43988 -0.26919 -8.79638 -2.61947 4.38978 21.66386 -1.72898 -4.35605 2.46375 6.59901
-1.81513 0.5999 0.64667 507.66734 0 -8.22882 -8.63449 3.99658 -8.94127 -23.56268 10.16144 3.94799 5.01135 -18.29745 28.35377 9.75874 87.17613 0.83338 -1.1811 16.4884 6.46532 -9.29241 9.48141 -82.2586 -0.22182 2.21643 5.98805 1.70625 8.46677 -7.00032 -23.15843 -0.34432 -7.44411 -2.31066 4.52173 22.67876 -1.87648 -3.90759 2.5502 6.74332
-1.81233 0.60006 0.64857 506.31941 0 -8.38969 -9.45375 3.85659 -9.60725 -23.66086 11.1248 4.11466 3.62311 -18.78459 28.2773 9.63724 86.84374 1.02464 -1.06547 16.53877 5.70473 -8.52802 9.49882 -82.1482 -0.26273 2.30786 5.32687 1.65503 8.10558 -4.86496 -23.4042 -0.43839 -6.39522 -2.05427 4.64449 23.76631 -2.03102 -3.51716 2.63471 6.95085
-1.81016 0.60013 0.64964 504.39716 0 -8.47192 -9.73727 3.48324 -10.71745 -24.54512 11.71541 5.26324 3.3384 -20.23113 27.55085 9.68831 86.74035 1.53991 -0.85337 17.25316 4.94577 -7.34853 9.1508 -81.9252 -0.24437 2.20095 5.1426 1.84269 7.99276 -4.84927 -22.33051 -0.57669 -6.20242 -1.93253 4.75641 25.04525 -2.20877 -3.27687 2.71266 7.30597
-1.80825 0.60015 0.6504 502.26298 0 -8.52053 -9.8089 3.02751 -11.96107 -25.71379 12.17006 6.73242 3.49879 -22.03719 26.51818 9.80787 86.71271 2.12773 -0.62486 18.21911 4.20067 -5.95712 8.67291 -81.66279 -0.2093 2.02443 5.11387 2.10203 7.90259 -5.59951 -20.78862 -0.73211 -6.32815 -1.86535 4.85819 26.39048 -2.39026 -3.10293 2.78682 7.72271
-1.80626 0.60019 0.65127 500.2347 0 -8.58116 -9.96014 2.61826 -13.10866 -26.73286 12.67978 8.01023 3.4815 -23.65924 25.5905 9.89283 86.64129 2.64785 -0.41198 19.06648 3.47108 -4.58905 8.25936 -81.42119 -0.18766 1.88262 5.00371 2.31537 7.74104 -6.01661 -19.47999 -0.8781 -6.33091 -1.77812 4.9602 27.69679 -2.56556 -2.91673 2.85942 8.11291
-1.80413 0.60024 0.65226 498.15827 0 -8.65492 -10.18172 2.16691 -14.40783 -27.84624 13.22386 9.48076 3.36959 -25.38841 24.77962 9.99483 86.60874 3.30407 -0.16873 19.93702 2.64408 -3.50774 7.81998 -81.16571 -0.14167 1.72603 4.93478 2.5839 7.82714 -6.36311 -18.0819 -1.03256 -6.23722 -1.66965 5.08106 29.04589 -2.76393 -2.6523 2.94689 8.49861
-1.80234 0.60025 0.65293 496.13553 0 -8.69313 -10.20582 1.78578 -15.42124 -28.82794 13.66048 10.6262 3.55966 -26.97038 23.66427 10.07892 86.51447 3.69764 0.01449 20.8188 2.02657 -1.80145 7.40676 -80.93117 -0.14216 1.58571 4.81683 2.75422 7.40634 -7.0368 -16.76076 -1.17286 -6.41918 -1.62016 5.15887 30.31739 -2.91057 -2.56777 3.00201 8.90921
-1.8014 0.60019 0.65287 494.3037 0 -8.64696 -9.74511 1.61134 -15.62479 -29.3709 13.84963 10.79468 4.44145 -28.08016 21.7756 10.07009 86.21899 3.3531 0.05559 21.64817 1.96834 1.75565 7.07452 -80.75479 -0.27688 1.49081 4.54678 2.64683 5.58602 -8.48409 -15.7597 -1.26954 -7.31673 -1.70307 5.1363 31.38437 -2.9519 -2.96126 2.96953 9.35358
-1.80079 0.60008 0.6525 492.53609 0 -8.56528 -9.09178 1.51214 -15.53443 -29.77126 13.93182 10.62591 5.61631 -29.02309 19.59958 10.04567 85.8612 2.74226 0.03134 22.48299 2.12355 5.89928 6.77783 -80.60271 -0.45852 1.41778 4.21939 2.43684 3.25621 -10.22517 -14.8546 -1.35107 -8.47561 -1.84604 5.06844 32.36618 -2.93497 -3.53382 2.90429 9.82333
-1.80003 0.59999 0.65225 490.74585 0 -8.49639 -8.52074 1.38392 -15.56988 -30.23932 14.05168 10.611 6.6769 -30.02469 17.55956 10.04459 85.53962 2.25184 0.02003 23.32894 2.19246 9.65952 6.47981 -80.44573 -0.61752 1.34566 3.9045 2.2664 1.15617 -11.79604 -13.90949 -1.43968 -9.49485 -1.97341 5.01026 33.3688 -2.91786 -4.02703 2.85347 10.29504
-1.7993 0.59991 0.65208 488.91967 0 -8.44048 -7.96325 1.23132 -15.64011 -30.70541 14.21254 10.6013 7.67301 -31.10983 15.47184 9.97534 85.18649 1.76678 0.08058 24.12732 2.2183 13.92633 6.11358 -80.2614 -0.78174 1.22544 3.65014 2.12655 -0.9398 -13.54888 -12.92973 -1.52864 -10.6137 -2.0556 4.99552 34.44713 -3.00845 -4.516 2.80472 10.71524
-1.79856 0.5998 0.65167 487.18733 0 -8.34946 -7.33602 1.14795 -15.56969 -31.13781 14.26501 10.50082 8.86765 -31.9788 13.43649 10.046 84.88437 1.20578 -0.02508 25.02156 2.38226 17.26726 5.90092 -80.14036 -0.94618 1.21135 3.25663 1.89987 -3.16046 -14.9818 -12.05492 -1.61235 -11.58241 -2.24259 4.88247 35.34947 -2.8671 -5.05289 2.74365 11.2439
-1.79779 0.59965 0.65068 485.69323 0 -8.17084 -6.55211 1.24228 -15.15301 -31.51204 14.03948 10.19241 10.53235 -32.2694 11.47133 10.4846 84.73505 0.50448 -0.56597 26.18836 2.89391 17.96911 6.09286 -80.18807 -1.10211 1.48703 2.47033 1.43988 -5.64234 -15.46146 -11.41501 -1.69131 -12.07596 -2.72869 4.48498 35.7608 -2.04515 -5.70094 2.65891 12.10024
-1.79697 0.59948 0.64946 484.29436 0 -7.95802 -5.70801 1.4031 -14.60962 -31.85594 13.71036 9.80939 12.38559 -32.34997 9.59711 11.06827 84.64384 -0.26603 -1.27284 27.44859 3.53378 17.70704 6.44076 -80.29888 -1.25628 1.86888 1.54937 0.89945 -8.22329 -15.6042 -10.88521 -1.76441 -12.40685 -3.31342 3.99464 36.00158 -1.00158 -6.38683 2.5625 13.05816
-1.79612 0.59931 0.64835 482.85519 0 -7.76074 -4.89971 1.53075 -14.1433 -32.21217 13.43224 9.48586 14.15448 -32.54013 7.77828 11.59976 84.52219 -1.00684 -1.90955 28.65851 4.1026 17.84439 6.72506 -80.38103 -1.40984 2.20094 0.70416 0.40735 -10.7332 -15.8968 -10.32853 -1.83599 -12.80881 -3.83665 3.56265 36.33813 -0.09559 -7.03981 2.46985 13.94661
-1.79554 0.59915 0.64724 481.40171 0 -7.56272 -4.04821 1.67378 -13.58531 -32.56936 13.13282 9.04563 15.92845 -32.66719 5.54232 12.07291 84.39731 -1.74594 -2.52851 29.90125 4.73237 18.16305 6.97997 -80.46385 -1.57108 2.53962 -0.20421 -0.13915 -13.37552 -16.21638 -9.67889 -1.92426 -13.23343 -4.43215 3.0609 36.59815 0.96658 -7.76402 2.38245 14.93417
-1.79435 0.59898 0.64606 480.00467 0 -7.35792 -3.27579 1.79919 -13.19105 -32.91965 12.85571 8.8315 17.73248 -32.87518 4.19877 12.70195 84.31649 -2.50605 -3.22022 31.09856 5.26341 17.87054 7.33246 -80.56006 -1.71516 2.89021 -1.01252 -0.58868 -15.75292 -16.39271 -9.24561 -1.97716 -13.56715 -4.90008 2.68292 36.97382 1.75721 -8.34827 2.28192 15.73938
-1.79156 0.59879 0.64476 478.69927 0 -7.14942 -2.73055 1.86323 -13.28957 -33.25505 12.65662 9.29294 19.57315 -33.38205 5.31524 13.72761 84.14346 -3.26709 -4.0955 32.13948 5.48387 16.09676 7.91824 -80.67671 -1.813 3.24125 -1.50909 -0.76195 -17.42264 -16.28031 -9.40228 -1.92878 -13.70163 -4.98807 2.67132 37.74864 1.72693 -8.52039 2.14719 16.01282
